<svg width="36" height="22" viewBox="0 0 36 22" fill="none" xmlns="http://www.w3.org/2000/svg">
<mask id="mask0_6_12" style="mask-type:alpha" maskUnits="userSpaceOnUse" x="0" y="0" width="36" height="22">
<rect width="36" height="22" fill="white"/>
</mask>
<g mask="url(#mask0_6_12)">
<g filter="url(#filter0_b_6_12)">
<path d="M-177 -397C-177 -404.732 -170.732 -411 -163 -411H199C206.732 -411 213 -404.732 213 -397V-13C213 -5.26804 206.794 1 199.062 1C166.563 1 84.9059 1 37.2523 1C31.1347 1 25.7684 4.98895 23.8644 10.8027C23.0199 13.3815 22.2945 15.5367 21.672 17.3378C19.7331 22.9479 16.6789 22.7568 14.7034 17.1595L12.2967 10.3405C10.3211 4.74316 5.03055 1 -0.905212 1H-163C-170.732 1 -177 -5.26801 -177 -13V-397Z" fill="black"/>
<path d="M-176.5 -397C-176.5 -404.456 -170.456 -410.5 -163 -410.5H199C206.456 -410.5 212.5 -404.456 212.5 -397V-13C212.5 -5.54126 206.515 0.5 199.062 0.5H198.872H198.679H198.486H198.292H198.096H197.9H197.702H197.503H197.304H197.103H196.901H196.697H196.493H196.288H196.082H195.874H195.666H195.456H195.246H195.034H194.821H194.607H194.393H194.177H193.96H193.742H193.523H193.303H193.082H192.86H192.637H192.413H192.188H191.962H191.735H191.507H191.278H191.048H190.817H190.585H190.352H190.118H189.883H189.647H189.41H189.173H188.934H188.694H188.454H188.212H187.97H187.726H187.482H187.237H186.99H186.743H186.495H186.246H185.996H185.745H185.494H185.241H184.988H184.733H184.478H184.222H183.965H183.707H183.448H183.188H182.928H182.667H182.404H182.141H181.877H181.613H181.347H181.081H180.813H180.545H180.276H180.006H179.736H179.464H179.192H178.919H178.645H178.371H178.095H177.819H177.542H177.264H176.985H176.706H176.426H176.145H175.863H175.581H175.298H175.014H174.729H174.443H174.157H173.87H173.583H173.294H173.005H172.715H172.424H172.133H171.841H171.548H171.255H170.961H170.666H170.37H170.074H169.777H169.479H169.181H168.882H168.582H168.282H167.981H167.679H167.377H167.074H166.77H166.466H166.161H165.855H165.549H165.242H164.935H164.626H164.318H164.008H163.698H163.388H163.077H162.765H162.452H162.139H161.826H161.512H161.197H160.881H160.565H160.249H159.932H159.614H159.296H158.977H158.658H158.338H158.017H157.697H157.375H157.053H156.73H156.407H156.084H155.759H155.435H155.109H154.784H154.457H154.131H153.804H153.476H153.148H152.819H152.49H152.16H151.83H151.499H151.168H150.836H150.504H150.172H149.839H149.506H149.172H148.837H148.503H148.168H147.832H147.496H147.159H146.823H146.485H146.147H145.809H145.471H145.132H144.793H144.453H144.113H143.772H143.431H143.09H142.748H142.406H142.064H141.721H141.378H141.034H140.691H140.346H140.002H139.657H139.312H138.966H138.62H138.274H137.927H137.58H137.233H136.886H136.538H136.19H135.841H135.493H135.143H134.794H134.445H134.095H133.744H133.394H133.043H132.692H132.341H131.989H131.638H131.286H130.933H130.581H130.228H129.875H129.522H129.168H128.814H128.46H128.106H127.752H127.397H127.042H126.687H126.332H125.977H125.621H125.265H124.909H124.553H124.197H123.84H123.483H123.126H122.769H122.412H122.055H121.697H121.34H120.982H120.624H120.266H119.907H119.549H119.19H118.832H118.473H118.114H117.755H117.396H117.037H116.678H116.318H115.959H115.599H115.239H114.88H114.52H114.16H113.8H113.44H113.08H112.719H112.359H111.999H111.638H111.278H110.918H110.557H110.197H109.836H109.475H109.115H108.754H108.393H108.033H107.672H107.311H106.951H106.59H106.229H105.869H105.508H105.147H104.787H104.426H104.066H103.705H103.345H102.984H102.624H102.263H101.903H101.543H101.182H100.822H100.462H100.102H99.7422H99.3824H99.0226H98.6628H98.3032H97.9437H97.5842H97.2249H96.8656H96.5065H96.1475H95.7885H95.4297H95.0711H94.7125H94.3541H93.9958H93.6376H93.2796H92.9217H92.564H92.2064H91.849H91.4917H91.1346H90.7776H90.4209H90.0642H89.7078H89.3516H88.9955H88.6396H88.2839H87.9284H87.5732H87.218H86.8632H86.5085H86.154H85.7998H85.4457H85.0919H84.7384H84.385H84.0319H83.679H83.3264H82.9741H82.6219H82.2701H81.9184H81.5671H81.216H80.8652H80.5146H80.1643H79.8144H79.4646H79.1152H78.7661H78.4173H78.0687H77.7205H77.3726H77.0249H76.6776H76.3307H75.984H75.6376H75.2916H74.946H74.6006H74.2556H73.9109H73.5666H73.2227H72.8791H72.5358H72.1929H71.8504H71.5083H71.1665H70.8251H70.484H70.1434H69.8031H69.4633H69.1238H68.7848H68.4461H68.1078H67.77H67.4326H67.0956H66.759H66.4228H66.0871H65.7518H65.4169H65.0824H64.7485H64.4149H64.0818H63.7492H63.417H63.0853H62.7541H62.4233H62.093H61.7632H61.4338H61.105H60.7766H60.4487H60.1213H59.7944H59.4681H59.1422H58.8168H58.492H58.1676H57.8438H57.5206H57.1978H56.8756H56.5539H56.2327H55.9121H55.5921H55.2726H54.9536H54.6353H54.3174H54.0002H53.6835H53.3674H53.0518H52.7369H52.4225H52.1087H51.7955H51.4829H51.1709H50.8595H50.5488H50.2386H49.929H49.6201H49.3118H49.0041H48.697H48.3906H48.0848H47.7797H47.4751H47.1713H46.8681H46.5655H46.2636H45.9624H45.6618H45.362H45.0627H44.7642H44.4664H44.1692H43.8727H43.5769H43.2818H42.9874H42.6937H42.4007H42.1085H41.8169H41.5261H41.236H40.9466H40.6579H40.37H40.0828H39.7964H39.5107H39.2257H38.9415H38.6581H38.3754H38.0935H37.8123H37.5319H37.2523C30.9128 0.5 25.3587 4.63333 23.3892 10.6471C22.5454 13.2238 21.8209 15.3763 21.1995 17.1744C20.7257 18.5451 20.1971 19.5198 19.6644 20.1371C19.1327 20.7534 18.6412 20.9673 18.2198 20.9518C17.7907 20.936 17.2838 20.6773 16.738 20.0186C16.1947 19.363 15.6578 18.3613 15.1749 16.9931L12.7682 10.1741C10.7221 4.37686 5.24254 0.5 -0.905212 0.5H-163C-170.456 0.5 -176.5 -5.54416 -176.5 -13V-397Z" stroke="#9F95FF"/>
</g>
</g>
<defs>
<filter id="filter0_b_6_12" x="-199" y="-433" width="434" height="476.453" filterUnits="userSpaceOnUse" colorInterpolationFilters="sRGB">
<feFlood floodOpacity="0" result="BackgroundImageFix"/>
<feGaussianBlur in="BackgroundImageFix" stdDeviation="11"/>
<feComposite in2="SourceAlpha" operator="in" result="effect1_backgroundBlur_6_12"/>
<feBlend mode="normal" in="SourceGraphic" in2="effect1_backgroundBlur_6_12" result="shape"/>
</filter>
</defs>
</svg>
