<svg width="38" height="40" viewBox="0 0 38 40" fill="none" xmlns="http://www.w3.org/2000/svg">
<path fill-rule="evenodd" clip-rule="evenodd" d="M10.6516 0.142044C9.45968 0.861286 9.40928 2.39912 10.5167 4.26261C12.0591 6.85816 15.4249 9.82941 18.1067 10.9631C18.868 11.2849 18.7227 11.306 17.9094 10.9917C16.0518 10.274 14.0587 8.87757 11.8594 6.75251C10.5986 5.53425 9.71696 4.5288 9.3272 3.86438L9.13696 3.54018L8.88608 3.78308C8.65552 4.00643 8.63824 4.05678 8.67304 4.40662C8.73408 5.02281 9.3304 6.09182 10.0004 6.78649C11.5435 8.38643 15.1388 10.7976 17.935 12.1078C18.4953 12.3703 18.9298 12.5859 18.9008 12.5868C18.7024 12.5939 17.0301 11.9288 15.936 11.4078C13.6208 10.3053 11.4145 8.9829 10.424 8.10408C10.083 7.80155 9.82616 7.63694 9.65208 7.60966C8.64624 7.45159 9.54624 9.25482 10.9262 10.1622C12.084 10.9235 15.943 12.6033 18.5229 13.4689C19.0613 13.6496 19.4247 13.7984 19.3305 13.7998C18.843 13.8066 15.4531 12.7329 13.1187 11.8323C12.0169 11.4073 10.568 10.7531 10.4242 10.6158C10.3162 10.5125 10.0642 10.6765 10.0642 10.8502C10.0642 11.3216 10.9894 12.307 11.7278 12.622C12.5415 12.969 15.004 13.5489 18.9928 14.3326C20.4157 14.6122 19.887 14.5787 17.113 14.213C14.7326 13.8993 12.5891 13.5558 11.8069 13.3626C11.1488 13.2 11.1306 13.2209 11.4315 13.7959C11.7462 14.3971 12.0745 14.6806 12.5707 14.7795C13.3536 14.9355 14.6142 15.0184 17.3089 15.0914C18.7735 15.131 20.1304 15.1693 20.3242 15.1765C21.1522 15.2071 17.5615 15.3891 15.1355 15.4394C13.1538 15.4805 12.4922 15.5172 12.4922 15.5859C12.4922 15.7224 12.8784 16.0704 13.2352 16.2556C13.4925 16.3889 13.6702 16.4167 14.2152 16.4082C14.825 16.3987 17.8656 16.0747 19.8484 15.8079C20.7488 15.6868 21.1418 15.6718 20.755 15.7735C20.6258 15.8075 19.0662 16.086 17.2894 16.3923C15.5126 16.6988 14.0586 16.9725 14.0586 17.0008C14.0586 17.0291 14.2598 17.1444 14.5056 17.257C14.8978 17.4366 15.0169 17.4565 15.4763 17.4192C16.0907 17.3693 17.7664 17.0004 20.0076 16.4215C20.8889 16.1939 21.6236 16.0209 21.6403 16.0371C21.6657 16.0616 19.3594 16.7991 16.3494 17.729C15.9941 17.8388 15.7034 17.9502 15.7034 17.9768C15.7034 18.0635 16.1201 18.2107 16.4842 18.2525C16.7257 18.2802 17.0067 18.244 17.3494 18.1411C18.0247 17.9385 20.2339 17.1533 21.3398 16.7229C21.8278 16.5329 22.2408 16.391 22.2576 16.4074C22.2918 16.4405 21.8958 16.6242 19.4463 17.7114C18.5111 18.1266 17.7562 18.5 17.7686 18.5413C17.8005 18.6466 18.344 18.7946 18.7244 18.8016C19.0889 18.8083 19.7357 18.5216 21.6557 17.5024C23.247 16.6577 23.2487 16.6569 23.1942 16.7423C23.1684 16.7826 22.4257 17.2867 21.5436 17.8624C20.6616 18.4381 19.9609 18.942 19.9866 18.9822C20.0138 19.0249 20.2772 19.0373 20.6208 19.0122C21.538 18.945 22.0478 18.6623 23.1347 17.6176C23.6267 17.1446 24.0407 16.7689 24.0548 16.7824C24.1195 16.8452 23.0991 18.2528 22.7507 18.5813C21.8794 19.4031 20.7001 19.6907 19.6318 19.3424L19.1351 19.1803L18.7703 19.3855C17.3194 20.2013 15.7477 21.8865 14.593 23.8647C13.8903 25.0685 13.2464 26.5039 12.6093 28.2871C10.7158 33.5864 8.25632 37.1238 5.52232 38.4802C3.61795 39.425 2.01903 39.206 1.32433 37.9052C0.855968 37.0282 1.34641 35.622 2.27194 35.1881C2.75822 34.9601 3.49202 34.998 4.15101 35.2853L4.62093 35.49L4.31571 35.2267C3.85816 34.8322 3.24827 34.6347 2.61638 34.6769C1.68186 34.7393 0.667528 35.3474 0.234962 36.1044C0.0256107 36.4707 0 36.5858 0 37.1602C0 37.9552 0.214678 38.4576 0.787515 39.0033C1.49561 39.6778 2.47956 40.0034 3.79856 40C4.68366 39.9976 5.10879 39.8984 5.9227 39.5044C7.66197 38.6625 9.9648 36.1118 11.3768 33.4634C11.538 33.1612 11.6879 32.9138 11.7102 32.9136C11.7323 32.9134 11.8123 33.0816 11.8877 33.2872C12.1692 34.0546 13.0318 34.8559 13.9886 35.2389C14.7076 35.5267 15.5642 35.5302 16.1917 35.2481C17.0794 34.849 17.6424 34.253 17.9056 33.4338C18.2179 32.4623 18.037 31.6638 17.3962 31.1858C17.0759 30.947 16.9859 30.977 17.2189 31.2453C17.8977 32.0263 17.2386 33.5705 15.9696 34.1716C15.4246 34.4298 14.6363 34.4387 14.0889 34.1928C13.5755 33.9623 12.8963 33.2695 12.5661 32.6394C12.3067 32.1445 12.2964 32.0927 12.2964 31.281C12.2964 30.4393 12.2972 30.4354 12.633 29.7794C13.3981 28.2843 15.3626 26.7587 18.0102 25.6039C18.5634 25.3627 19.9184 24.8736 21.0211 24.5176C23.5834 23.69 24.3005 23.4387 25.2828 23.0239C28.0015 21.876 29.4898 20.6583 30.112 19.0729C30.3385 18.4957 30.4123 17.3476 30.2726 16.5803C30.2182 16.2827 30.0724 15.7442 29.9482 15.3835C29.8242 15.0228 29.7227 14.6407 29.7227 14.5343C29.7227 14.2828 30.015 14.0723 31.0116 13.606C31.4404 13.4053 31.9849 13.0883 32.2215 12.9018L32.6518 12.5624L35.2777 13.0639C36.7219 13.3398 37.9133 13.5562 37.925 13.5449C37.9367 13.5334 36.7994 13.1175 35.3976 12.6203C33.0759 11.7972 32.845 11.6998 32.8068 11.5271C32.4444 9.89341 31.4063 9.02439 29.8172 9.02439C28.2265 9.02439 26.775 9.91365 26.2815 11.1904C26.0401 11.8154 25.8763 13.3703 25.9865 13.9927C26.0669 14.4474 26.0606 14.5233 25.9215 14.7728C25.5591 15.4231 24.2822 15.9761 23.3002 15.9081C22.3765 15.844 21.8907 15.3797 21.8907 14.5612C21.8907 13.5551 22.6773 12.8753 23.705 12.9932C24.3004 13.0615 24.7886 13.4925 24.7886 13.95C24.7886 14.1412 24.6586 14.1551 24.5982 13.9702C24.5315 13.7673 24.12 13.5643 23.748 13.5511C23.0629 13.5265 22.6738 13.8613 22.6738 14.4754C22.6738 14.826 22.9083 15.056 23.347 15.1357C23.8434 15.2259 25.0942 14.8587 25.5166 14.4988C25.6339 14.3989 25.6489 14.3084 25.6061 13.9578C25.4612 12.7693 24.8965 12.3465 22.3606 11.5278C19.6602 10.6558 17.5386 9.30541 15.0376 6.86657C12.4266 4.32055 10.6962 1.60048 10.8766 0.325874C10.9019 0.146518 10.9146 -0.000151572 10.9047 1.17554e-07C10.8947 0.000151731 10.7808 0.0640827 10.6516 0.142044ZM30.3318 10.8867C30.5581 11.0401 30.5519 11.1346 30.3102 11.2237C30.1524 11.2817 30.0458 11.2557 29.7618 11.0897C29.5681 10.9763 29.4094 10.8576 29.4094 10.826C29.4094 10.7182 30.1558 10.7673 30.3318 10.8867ZM29.6834 17.0397C29.5012 19.2621 27.8894 20.8969 24.4752 22.322C24.0229 22.5108 22.6096 23.0402 21.3345 23.4984C17.733 24.7929 16.4398 25.3414 15.1344 26.128C14.825 26.3145 14.5422 26.467 14.5062 26.467C14.4702 26.467 14.6102 26.3243 14.8174 26.1498C15.859 25.2729 18.0274 24.1588 20.5983 23.1798C21.4168 22.8682 22.5975 22.4188 23.2221 22.1813C25.7299 21.2274 27.2624 20.3686 28.2097 19.3865C29.0487 18.5165 29.4095 17.6954 29.5362 16.3678L29.5965 15.736L29.6624 16.1152C29.6986 16.3238 29.7081 16.7398 29.6834 17.0397Z" fill="white"/>
</svg>
