<svg width="20" height="21" viewBox="0 0 20 21" fill="none" xmlns="http://www.w3.org/2000/svg">
<path d="M11.6434 10.4967L16.6552 5.49653C16.8747 5.27705 16.998 4.97938 16.998 4.669C16.998 4.35861 16.8747 4.06094 16.6552 3.84146C16.4358 3.62199 16.1381 3.49869 15.8277 3.49869C15.5173 3.49869 15.2196 3.62199 15.0002 3.84146L10 8.85328L4.99983 3.84146C4.78036 3.62199 4.48268 3.49869 4.1723 3.49869C3.86191 3.49869 3.56424 3.62199 3.34476 3.84146C3.12529 4.06094 3.00199 4.35861 3.00199 4.669C3.00199 4.97938 3.12529 5.27705 3.34476 5.49653L8.35659 10.4967L3.34476 15.4969C3.23552 15.6052 3.14881 15.7341 3.08964 15.8762C3.03047 16.0182 3 16.1705 3 16.3244C3 16.4783 3.03047 16.6306 3.08964 16.7726C3.14881 16.9147 3.23552 17.0436 3.34476 17.1519C3.45312 17.2612 3.58203 17.3479 3.72406 17.4071C3.86609 17.4662 4.01843 17.4967 4.1723 17.4967C4.32616 17.4967 4.47851 17.4662 4.62054 17.4071C4.76257 17.3479 4.89148 17.2612 4.99983 17.1519L10 12.1401L15.0002 17.1519C15.1085 17.2612 15.2374 17.3479 15.3795 17.4071C15.5215 17.4662 15.6738 17.4967 15.8277 17.4967C15.9816 17.4967 16.1339 17.4662 16.2759 17.4071C16.418 17.3479 16.5469 17.2612 16.6552 17.1519C16.7645 17.0436 16.8512 16.9147 16.9104 16.7726C16.9695 16.6306 17 16.4783 17 16.3244C17 16.1705 16.9695 16.0182 16.9104 15.8762C16.8512 15.7341 16.7645 15.6052 16.6552 15.4969L11.6434 10.4967Z" fill="white"/>
</svg>
