<svg xmlns="http://www.w3.org/2000/svg" xmlns:xlink="http://www.w3.org/1999/xlink" version="1.1" width="256" height="256" viewBox="0 0 256 256" xml:space="preserve">

<defs>
</defs>
<g style="stroke: none; stroke-width: 0; stroke-dasharray: none; stroke-linecap: butt; stroke-linejoin: miter; stroke-miterlimit: 10; fill: none; fill-rule: nonzero; opacity: 1;" transform="translate(1.4065934065934016 1.4065934065934016) scale(2.81 2.81)" >
	<rect x="0" y="0" rx="0" ry="0" width="90" height="90" style="stroke: none; stroke-width: 1; stroke-dasharray: none; stroke-linecap: butt; stroke-linejoin: miter; stroke-miterlimit: 10; fill: rgb(42,181,64); fill-rule: nonzero; opacity: 1;" transform=" matrix(1 0 0 1 0 0) "/>
	<path d="M 10.268 45.292 c -0.002 5.631 1.469 11.128 4.266 15.973 L 10 77.82 l 16.943 -4.442 c 4.668 2.546 9.924 3.887 15.273 3.89 h 0.014 c 17.614 0 31.953 -14.335 31.961 -31.951 c 0.003 -8.538 -3.319 -16.565 -9.353 -22.604 c -6.035 -6.039 -14.059 -9.367 -22.608 -9.37 c -17.617 0 -31.954 14.332 -31.962 31.949 M 20.358 60.43 l -0.632 -1.005 c -2.66 -4.228 -4.063 -9.115 -4.061 -14.132 c 0.006 -14.642 11.922 -26.555 26.575 -26.555 c 7.096 0.003 13.765 2.769 18.781 7.788 c 5.016 5.019 7.776 11.692 7.774 18.787 C 68.787 59.957 56.871 71.87 42.229 71.87 h -0.01 c -4.767 -0.003 -9.443 -1.283 -13.521 -3.702 l -0.97 -0.575 l -10.055 2.636 L 20.358 60.43 z M 42.23 77.267 L 42.23 77.267 L 42.23 77.267 C 42.229 77.267 42.229 77.267 42.23 77.267" style="stroke: none; stroke-width: 1; stroke-dasharray: none; stroke-linecap: butt; stroke-linejoin: miter; stroke-miterlimit: 10; fill: rgb(26,140,44); fill-rule: nonzero; opacity: 1;" transform=" matrix(1 0 0 1 0 0) " stroke-linecap="round" />
	<path d="M 34.242 31.933 c -0.598 -1.33 -1.228 -1.357 -1.797 -1.38 c -0.466 -0.02 -0.998 -0.019 -1.53 -0.019 c -0.533 0 -1.398 0.2 -2.129 0.999 c -0.732 0.799 -2.795 2.731 -2.795 6.66 c 0 3.929 2.862 7.726 3.261 8.259 c 0.399 0.532 5.525 8.853 13.641 12.054 c 6.746 2.66 8.119 2.131 9.583 1.998 c 1.464 -0.133 4.725 -1.931 5.39 -3.796 c 0.666 -1.865 0.666 -3.463 0.466 -3.797 c -0.2 -0.333 -0.732 -0.533 -1.531 -0.932 c -0.799 -0.399 -4.725 -2.332 -5.457 -2.598 c -0.732 -0.266 -1.265 -0.399 -1.797 0.4 c -0.532 0.799 -2.062 2.597 -2.528 3.129 c -0.466 0.534 -0.932 0.6 -1.73 0.201 c -0.799 -0.401 -3.371 -1.243 -6.422 -3.963 c -2.374 -2.117 -3.977 -4.731 -4.443 -5.53 c -0.466 -0.799 -0.05 -1.231 0.351 -1.629 c 0.359 -0.358 0.799 -0.932 1.198 -1.398 c 0.398 -0.466 0.531 -0.799 0.798 -1.332 c 0.267 -0.533 0.133 -0.999 -0.066 -1.399 C 36.503 37.461 34.951 33.512 34.242 31.933" style="stroke: none; stroke-width: 1; stroke-dasharray: none; stroke-linecap: butt; stroke-linejoin: miter; stroke-miterlimit: 10; fill: rgb(26,140,44); fill-rule: nonzero; opacity: 1;" transform=" matrix(1 0 0 1 0 0) " stroke-linecap="round" />
	<path d="M 16.078 44.13 c -0.002 5.631 1.469 11.128 4.266 15.973 L 15.81 76.658 l 16.943 -4.442 c 4.668 2.546 9.924 3.887 15.273 3.89 h 0.014 c 17.614 0 31.953 -14.335 31.961 -31.951 c 0.003 -8.538 -3.319 -16.565 -9.353 -22.604 c -6.035 -6.039 -14.059 -9.367 -22.608 -9.37 c -17.617 0 -31.954 14.332 -31.962 31.949 M 26.167 59.268 l -0.632 -1.005 c -2.66 -4.228 -4.063 -9.115 -4.061 -14.132 c 0.006 -14.642 11.922 -26.555 26.575 -26.555 c 7.096 0.003 13.765 2.769 18.781 7.788 c 5.016 5.019 7.776 11.692 7.774 18.787 C 74.597 58.795 62.68 70.709 48.039 70.709 h -0.01 c -4.767 -0.003 -9.443 -1.283 -13.521 -3.702 l -0.97 -0.575 l -10.055 2.636 L 26.167 59.268 z M 48.039 76.105 L 48.039 76.105 L 48.039 76.105 C 48.039 76.105 48.039 76.105 48.039 76.105" style="stroke: none; stroke-width: 1; stroke-dasharray: none; stroke-linecap: butt; stroke-linejoin: miter; stroke-miterlimit: 10; fill: rgb(255,255,255); fill-rule: nonzero; opacity: 1;" transform=" matrix(1 0 0 1 0 0) " stroke-linecap="round" />
	<path d="M 40.052 30.771 c -0.598 -1.33 -1.228 -1.357 -1.797 -1.38 c -0.466 -0.02 -0.998 -0.019 -1.53 -0.019 c -0.533 0 -1.398 0.2 -2.129 0.999 c -0.732 0.799 -2.795 2.731 -2.795 6.66 c 0 3.929 2.862 7.726 3.261 8.259 c 0.399 0.532 5.525 8.853 13.641 12.054 c 6.746 2.66 8.119 2.131 9.583 1.998 c 1.464 -0.133 4.725 -1.931 5.39 -3.796 c 0.666 -1.865 0.666 -3.463 0.466 -3.797 c -0.2 -0.333 -0.732 -0.533 -1.531 -0.932 c -0.799 -0.399 -4.725 -2.332 -5.457 -2.598 c -0.732 -0.266 -1.265 -0.399 -1.797 0.4 c -0.532 0.799 -2.062 2.597 -2.528 3.129 c -0.466 0.534 -0.932 0.6 -1.73 0.201 c -0.799 -0.401 -3.371 -1.243 -6.422 -3.963 c -2.374 -2.117 -3.977 -4.731 -4.443 -5.53 c -0.466 -0.799 -0.05 -1.231 0.351 -1.629 c 0.359 -0.358 0.799 -0.932 1.198 -1.398 c 0.398 -0.466 0.531 -0.799 0.798 -1.332 c 0.267 -0.533 0.133 -0.999 -0.066 -1.399 C 42.313 36.299 40.761 32.35 40.052 30.771" style="stroke: none; stroke-width: 1; stroke-dasharray: none; stroke-linecap: butt; stroke-linejoin: miter; stroke-miterlimit: 10; fill: rgb(255,255,255); fill-rule: nonzero; opacity: 1;" transform=" matrix(1 0 0 1 0 0) " stroke-linecap="round" />
</g>
</svg>